<svg xmlns="http://www.w3.org/2000/svg" xmlns:xlink="http://www.w3.org/1999/xlink" fill="none" version="1.1" width="3125.787109375" height="659.072998046875" viewBox="0 0 3125.787109375 659.072998046875"><defs><clipPath id="master_svg0_4576_03238"><rect x="0" y="0" width="3125.787109375" height="659.072998046875" rx="0"/></clipPath><mask id="master_svg1_4576_03242" style="mask-type:alpha" maskUnits="objectBoundingBox"><g><path d="M0,264.786L0,34.67C0,15.575,15.574,0.0000152588,34.669,0.0000152588L264.786,0.0000152588C279.107,0.0000152588,291.336,8.17101,296.816,21.402C302.296,34.633,299.428,49.058,289.301,59.185L59.185,289.302C49.058,299.429,34.633,302.298,21.402,296.817C8.17,291.336,-0.0000038147,279.108,0,264.786Z" fill="#FFFFFF" fill-opacity="1"/></g></mask><linearGradient x1="-0.2339930534362793" y1="1.7712773084640503" x2="0.8498728275299074" y2="-0.10598021000623692" id="master_svg2_4576_03339"><stop offset="0%" stop-color="#0049E6" stop-opacity="1"/><stop offset="52.99999713897705%" stop-color="#9C15F7" stop-opacity="1"/><stop offset="100%" stop-color="#FF4CF8" stop-opacity="1"/></linearGradient><mask id="master_svg3_4576_03249" style="mask-type:alpha" maskUnits="objectBoundingBox"><g><path d="M0,92.8479995727539L182.047,92.8479995727539L182.047,299.5549995727539L0,299.5549995727539L0,92.8479995727539Z" fill="#FFFFFF" fill-opacity="1"/></g></mask><mask id="master_svg4_4576_03256" style="mask-type:alpha" maskUnits="objectBoundingBox"><g><path d="M3.9489998817443848,0L299.5539998817444,0L299.5539998817444,109.393L3.949005126954385,109.393L3.9489998817443848,0Z" fill="#FFFFFF" fill-opacity="1"/></g></mask><mask id="master_svg5_4576_03261" style="mask-type:alpha" maskUnits="objectBoundingBox"><g><path d="M317.225,659.0732019042969L34.669,659.0732019042969C15.574,659.0732019042969,0,643.4982019042968,0,624.4032019042968L0,490.1182019042969C0,480.5702019042969,3.403,472.3542019042969,10.154,465.60220190429686L140.135,335.6220019042969C148.011,327.74499190429685,158.131,324.3100019042969,169.175,325.7640079042969C180.219,327.21802190429685,189.105,333.1560019042969,194.674,342.8020019042969L347.248,607.0672019042969C353.613,618.0912019042969,353.613,630.7132019042969,347.249,641.7372019042969C340.884,652.762201904297,329.955,659.0732019042969,317.225,659.0732019042969Z" fill="#FFFFFF" fill-opacity="1"/></g></mask><linearGradient x1="0.8561024069786072" y1="-0.24535208940505981" x2="0.17138157153943265" y2="1.0390944325365932" id="master_svg6_4576_03344"><stop offset="0%" stop-color="#0077BF" stop-opacity="1"/><stop offset="43.99999976158142%" stop-color="#1A84F7" stop-opacity="1"/><stop offset="100%" stop-color="#5EF9F6" stop-opacity="1"/></linearGradient><mask id="master_svg7_4576_03268" style="mask-type:alpha" maskUnits="objectBoundingBox"><g><path d="M0,474.9049987792969L327.999,474.9049987792969L327.999,659.0729987792969L0,659.0729987792969L0,474.9049987792969Z" fill="#FFFFFF" fill-opacity="1"/></g></mask><mask id="master_svg8_4576_03275" style="mask-type:alpha" maskUnits="objectBoundingBox"><g><path d="M43.643001556404684,325.43798828125L274.7569901123047,325.43798828125L274.7569901123047,481.50698828124996L43.64299011230469,481.50698828124996L43.643001556404684,325.43798828125Z" fill="#FFFFFF" fill-opacity="1"/></g></mask><mask id="master_svg9_4576_03282" style="mask-type:alpha" maskUnits="objectBoundingBox"><g><path d="M75.14600372314,325.43798828125L347.24999609375,325.43798828125L347.24999609375,607.06698828125L75.14599609375,607.06698828125L75.14600372314,325.43798828125Z" fill="#FFFFFF" fill-opacity="1"/></g></mask><mask id="master_svga_4576_03285" style="mask-type:alpha" maskUnits="objectBoundingBox"><g><path d="M624.4014963378906,659.073L501.2064963378906,659.073C488.4744963378906,659.073,477.54649633789063,652.762,471.1814963378906,641.737L251.26597633789063,260.832C243.3089763378906,247.051,245.52397633789062,230.234,256.7759963378906,218.982L465.60149633789064,10.155C472.35349633789065,3.403,480.56949633789066,0,490.11749633789066,0L624.4014963378906,0C643.4974963378907,0,659.0714963378906,15.575,659.0714963378906,34.67L659.0714963378906,624.403C659.0714963378906,643.498,643.4974963378907,659.073,624.4014963378906,659.073Z" fill="#FFFFFF" fill-opacity="1"/></g></mask><linearGradient x1="0.14845561981201172" y1="0.8841103911399841" x2="0.5019352329077503" y2="-0.08642970246329021" id="master_svgb_4576_03350"><stop offset="0%" stop-color="#FF057E" stop-opacity="1"/><stop offset="100%" stop-color="#FFCB00" stop-opacity="1"/></linearGradient><mask id="master_svgc_4576_03293" style="mask-type:alpha" maskUnits="objectBoundingBox"><g><path d="M342.885009765625,0.0010000000474974513L659.073009765625,0.0010000000474974513L659.073009765625,132.8730000000475L342.885009765625,132.8730000000475L342.885009765625,0.0010000000474974513Z" fill="#FFFFFF" fill-opacity="1"/></g></mask><mask id="master_svgd_4576_03300" style="mask-type:alpha" maskUnits="objectBoundingBox"><g><path d="M490.11700439453125,0L659.0720043945313,0L659.0720043945313,376.683L490.11700439453125,376.683L490.11700439453125,0Z" fill="#FFFFFF" fill-opacity="1"/></g></mask><mask id="master_svge_4576_03305" style="mask-type:alpha" maskUnits="objectBoundingBox"><g><path d="M246.52699279785156,170.10699462890625L614.7699927978515,170.10699462890625L614.7699927978515,659.0729946289063L246.52700805665157,659.0729946289063L246.52699279785156,170.10699462890625Z" fill="#FFFFFF" fill-opacity="1"/></g></mask><mask id="master_svgf_4576_03312" style="mask-type:alpha" maskUnits="objectBoundingBox"><g><path d="M251.2660064697375,260.8320007324219L659.0729912109375,260.8320007324219L659.0729912109375,659.0730007324219L251.2659912109375,659.0730007324219L251.2660064697375,260.8320007324219Z" fill="#FFFFFF" fill-opacity="1"/></g></mask></defs><g clip-path="url(#master_svg0_4576_03238)"><g><g mask="url(#master_svg1_4576_03242)"><g><path d="M0,0L302.297,0L302.297,302.297L0,302.297L0,0Z" fill="url(#master_svg2_4576_03339)" fill-opacity="1"/></g></g><g mask="url(#master_svg3_4576_03249)"><g><path d="M0,264.7860072021484L0,92.84800720214844Q7.132,159.38100720214845,31.547,188.67900720214845C55.962,217.97800720214843,132.34,201.57600720214845,182.047,166.43900720214845L59.185,289.30200720214845C49.058,299.42900720214845,34.633,302.2980072021484,21.402,296.81700720214843C8.17,291.33600720214844,-0.0000038147,279.1080072021484,0,264.7860072021484Z" fill-rule="evenodd" fill="#330066" fill-opacity="1"/></g></g><g mask="url(#master_svg4_4576_03256)"><g><path d="M3.9489998817443848,18.632C9.753999881744384,7.573,21.353999881744386,0,34.668999881744384,0L264.7859998817444,0C279.1069998817444,0,291.3359998817444,8.171,296.8159998817444,21.402C302.29599988174436,34.633,299.42799988174437,49.058,289.30099988174436,59.185L239.0929998817444,109.393C180.4629998817444,10.508,4.064986881744384,18.626,3.9489998817443848,18.632Z" fill-rule="evenodd" fill="#FF98FF" fill-opacity="1"/></g></g><g mask="url(#master_svg5_4576_03261)"><g><path d="M0,324.30999755859375L353.614,324.30999755859375L353.614,659.0729975585937L0,659.0729975585937L0,324.30999755859375Z" fill="url(#master_svg6_4576_03344)" fill-opacity="1"/></g></g><g mask="url(#master_svg7_4576_03268)"><g><path d="M317.225,659.0729987792969L34.669,659.0729987792969C15.574,659.0729987792969,0,643.4979987792968,0,624.4029987792969L0,490.1179987792969C0,484.59200877929686,1.14,479.5129987792969,3.408,474.9049987792969Q31.596,655.8289987792969,327.999,657.4509987792969C324.613,658.5189987792969,320.998,659.0729987792969,317.225,659.0729987792969Z" fill-rule="evenodd" fill="#98FFFF" fill-opacity="1"/></g></g><g mask="url(#master_svg8_4576_03275)"><g><path d="M43.643001556396484,432.1152019042969L140.13600155639648,335.6220019042969C148.01200155639648,327.74499190429685,158.1320015563965,324.3100019042969,169.1760015563965,325.7640079042969C180.22000155639648,327.21802190429685,189.10600155639648,333.1560019042969,194.6750015563965,342.8020019042969L274.7570015563965,481.50720190429683Q180.4240015563965,370.2590019042969,43.643001556396484,432.1152019042969Z" fill-rule="evenodd" fill="#0131B8" fill-opacity="1"/></g></g><g mask="url(#master_svg9_4576_03282)"><g><path d="M75.14600372314453,400.6120019042969L140.13600372314454,335.6220019042969C148.01200372314452,327.74499190429685,158.13200372314452,324.3100019042969,169.17600372314453,325.7640079042969C180.22000372314454,327.21802190429685,189.1060037231445,333.1560019042969,194.67500372314453,342.8020019042969L347.24900372314454,607.0672019042969C304.9590037231445,545.6902019042968,188.72200372314452,405.3680019042969,153.31900372314453,392.54900190429686Q117.91600372314454,379.73200190429685,75.14600372314453,400.6120019042969Z" fill-rule="evenodd" fill="#0131B8" fill-opacity="1"/></g></g><g mask="url(#master_svga_4576_03285)"><g><path d="M243.30900573731563,0L659.0729904785156,0L659.0729904785156,659.073L243.30899047851562,659.073L243.30900573731563,0Z" fill="url(#master_svgb_4576_03350)" fill-opacity="1"/></g></g><g><g mask="url(#master_svgc_4576_03293)"><g><path d="M342.88500976796877,132.872L465.60197216796877,10.155C472.35297216796874,3.403,480.56897216796875,0,490.11697216796875,0L624.4019721679688,0C643.4979721679688,0,659.0719721679687,15.575,659.0719721679687,34.67L659.0719721679687,81.285Q504.4549721679688,15.758,342.88397216796875,132.872L342.88500976796877,132.872Z" fill-rule="evenodd" fill="#FDF063" fill-opacity="1"/></g></g><g mask="url(#master_svgd_4576_03300)"><g><path d="M490.11700439453125,0L624.4020043945312,0C643.4980043945312,0,659.0720043945313,15.575,659.0720043945313,34.67L659.0720043945313,376.683Q622.8020043945312,110.554,490.11700439453125,0Z" fill-rule="evenodd" fill="#FDF063" fill-opacity="1"/></g></g><g mask="url(#master_svge_4576_03305)"><g><path d="M614.7705268554687,659.0729946289063L501.2065268554687,659.0729946289063C488.47452685546875,659.0729946289063,477.54652685546876,652.7619946289062,471.18152685546875,641.7369946289062L251.26600685546876,260.8319946289063C243.30900685546874,247.05099462890627,245.52400685546874,230.23399462890626,256.77602685546873,218.98199462890625L305.65002685546875,170.10800170890624L305.65102685546873,170.10699462890625C305.65002685546875,170.10699462890625,412.12152685546874,516.6339946289063,614.7705268554687,659.0729946289063Z" fill-rule="evenodd" fill="#CB0680" fill-opacity="1"/></g></g><g mask="url(#master_svgf_4576_03312)"><g><path d="M624.4019759521484,659.0730007324219L501.20697595214847,659.0730007324219C488.47497595214844,659.0730007324219,477.54697595214844,652.7620007324219,471.18197595214843,641.7370007324218L251.26597595214844,260.8320007324219Q460.43897595214844,556.1320007324218,659.0729759521485,536.5990007324219L659.0729759521485,624.4030007324219C659.0719759521485,643.4980007324218,643.4979759521484,659.0730007324219,624.4019759521484,659.0730007324219Z" fill-rule="evenodd" fill="#CB0680" fill-opacity="1"/></g></g></g></g><g><path d="M971.8159380859375,199.30400085450313L971.8159380859375,317.7039855957031L1083.4160380859375,199.30401611330313L1161.8160380859374,199.30401611330313L1050.2150380859375,312.10398559570314L1172.6150380859376,484.90398559570315L1093.8150380859374,484.90398559570315L1007.8150380859375,356.5039855957031L971.8150380859375,392.90398559570315L971.8150380859375,484.90398559570315L909.0140380859375,484.90398559570315L909.0140380859375,199.30398559570312L971.8159380859375,199.30400085450313Z" fill="#FFFFFF" fill-opacity="1"/></g><g><path d="M1239.61001796875,433.5050048828125C1242.14101796875,437.9050048828125,1245.41001796875,441.5050048828125,1249.41001796875,444.3050048828125C1253.41001796875,447.1050048828125,1258.01001796875,449.1740048828125,1263.21011796875,450.5050048828125C1268.41001796875,451.8420048828125,1273.81001796875,452.5050048828125,1279.41001796875,452.5050048828125C1283.40991796875,452.5050048828125,1287.60991796875,452.0430048828125,1292.00991796875,451.1050048828125C1296.40991796875,450.1730048828125,1300.40991796875,448.7050048828125,1304.00991796875,446.7050048828125C1307.61091796875,444.7050048828125,1310.61091796875,442.0430048828125,1313.00991796875,438.7050048828125C1315.40991796875,435.3740048828125,1316.61091796875,431.1740048828125,1316.61091796875,426.1050048828125C1316.61091796875,417.57400488281246,1310.94191796875,411.1730048828125,1299.61091796875,406.9050048828125C1288.2729179687499,402.6420048828125,1272.47291796875,398.3740048828125,1252.21091796875,394.1050048828125C1243.94191796875,392.24200488281247,1235.87291796875,390.0430048828125,1228.01101796875,387.5050048828125C1220.14291796875,384.9740048828125,1213.14291796875,381.6420048828125,1207.01101796875,377.5050048828125C1200.87301796875,373.3740048828125,1195.94301796875,368.1730048828125,1192.21091796875,361.9050048828125C1188.47387796875,355.6420048828125,1186.61095796875,347.9740048828125,1186.61095796875,338.9050048828125C1186.61095796875,325.5740048828125,1189.21093796875,314.6420048828125,1194.41101796875,306.1050048828125C1199.61091796875,297.5740048828125,1206.47301796875,290.8420048828125,1215.01101796875,285.9050048828125C1223.54201796875,280.9739948828125,1233.14291796875,277.5050048828125,1243.81101796875,275.5050048828125C1254.47401796875,273.5050048828125,1265.41201796875,272.5050048828125,1276.61201796875,272.5050048828125C1287.81091796875,272.5050048828125,1298.67391796875,273.5740048828125,1309.21191796875,275.7050148828125C1319.74291796875,277.8430148828125,1329.14391796875,281.4430248828125,1337.41191796875,286.5050048828125C1345.67491796875,291.5740048828125,1352.54291796875,298.3050048828125,1358.01191796875,306.7050048828125C1363.47491796875,315.1050048828125,1366.74291796875,325.7050048828125,1367.81191796875,338.5050048828125L1313.81191796875,338.5050048828125C1313.01191796875,327.5740048828125,1308.87391796875,320.1730048828125,1301.41291796875,316.3050048828125C1293.94391796875,312.4430048828125,1285.14391796875,310.5050048828125,1275.0129179687501,310.5050048828125C1271.81301796875,310.5050048828125,1268.34401796875,310.7050048828125,1264.61391796875,311.1050048828125C1260.87581796875,311.5050048828125,1257.47591796875,312.3740048828125,1254.41391796875,313.7050048828125C1251.34501796875,315.0430048828125,1248.74501796875,316.9740048828125,1246.61391796875,319.5050048828125C1244.47591796875,322.0430048828125,1243.41391796875,325.4430048828125,1243.41391796875,329.7050048828125C1243.41391796875,334.7740048828125,1245.27601796875,338.9050048828125,1249.01391796875,342.1050048828125C1252.74491796875,345.3050048828125,1257.61491796875,347.9050048828125,1263.61491796875,349.9050048828125C1269.61491796875,351.9050048828125,1276.47691796875,353.7050048828125,1284.21491796875,355.3050048828125C1291.94591796875,356.9050048828125,1299.81491796875,358.6420048828125,1307.81491796875,360.5050048828125C1316.07791796875,362.3740048828125,1324.14691796875,364.6420048828125,1332.01491796875,367.3050048828125C1339.87691796875,369.9740048828125,1346.87691796875,373.5050048828125,1353.01491796875,377.9050048828125C1359.14691796875,382.3050048828125,1364.07691796875,387.7740048828125,1367.81491796875,394.3050048828125C1371.54591796875,400.84300488281247,1373.41591796875,408.9050048828125,1373.41591796875,418.5050048828125C1373.41591796875,432.1050048828125,1370.67891796875,443.5050048828125,1365.21591796875,452.7050048828125C1359.74691796875,461.9050048828125,1352.61591796875,469.3050048828125,1343.81591796875,474.9050048828125C1335.01591796875,480.5050048828125,1324.94791796875,484.4430048828125,1313.61691796875,486.7050048828125C1302.27891796875,488.96800488281247,1290.74791796875,490.1050048828125,1279.01591796875,490.1050048828125C1267.01591796875,490.1050048828125,1255.27881796875,488.9050048828125,1243.81591796875,486.5050048828125C1232.34691796875,484.1050048828125,1222.14791796875,480.1050048828125,1213.21591796875,474.5050048828125C1204.27791796875,468.9050048828125,1196.94691796875,461.5050048828125,1191.21593796875,452.3050048828125C1185.47887796875,443.1050048828125,1182.34692396875,431.57400488281246,1181.81591796875,417.7050048828125L1235.81591796875,417.7050048828125C1235.80891796875,423.8420048828125,1237.07191796875,429.1050048828125,1239.61001796875,433.5050048828125Z" fill="#FFFFFF" fill-opacity="1"/></g><g><path d="M1584.6039306640625,484.90498046875L1547.8039306640626,346.10498046875L1547.0039306640624,346.10498046875L1511.8039306640626,484.90498046875L1453.0039306640624,484.90498046875L1387.4039306640625,278.10498046875L1447.4039306640625,278.10498046875L1485.4039306640625,418.50498046875L1486.2039306640625,418.50498046875L1520.6029306640626,278.10498046875L1575.8029306640624,278.10498046875L1611.0029306640624,418.10498046875L1611.8029306640624,418.10498046875L1649.8029306640624,278.10498046875L1708.2029306640625,278.10498046875L1643.0029306640624,484.90498046875L1584.6039306640625,484.90498046875Z" fill="#FFFFFF" fill-opacity="1"/></g><g><path d="M1972.6022216796875,199.3040008544922C1991.0022216796874,199.3040008544922,2008.1332216796875,202.24200085449218,2024.0022216796874,208.1040008544922C2039.8642216796875,213.9730008544922,2053.6022216796873,222.77200085449218,2065.2022216796877,234.50400085449218C2076.8022216796876,246.2410008544922,2085.8642216796875,260.9040008544922,2092.4012216796873,278.5040008544922C2098.9322216796877,296.1040008544922,2102.2022216796877,316.7730008544922,2102.2022216796877,340.5040008544922C2102.2022216796877,361.3040008544922,2099.5332216796874,380.5040008544922,2094.2022216796877,398.1040008544922C2088.8642216796875,415.70400085449216,2080.8022216796876,430.9040008544922,2070.0022216796874,443.70400085449216C2059.2022216796877,456.5040008544922,2045.7332216796874,466.5730008544922,2029.6022216796875,473.9040008544922C2013.4642216796874,481.2410008544922,1994.4642216796874,484.9040008544922,1972.6022216796875,484.9040008544922L1849.4022216796875,484.9040008544922L1849.4022216796875,199.3040161132922L1972.6022216796875,199.3040008544922ZM1968.2032216796874,432.1050008544922C1977.2652216796876,432.1050008544922,1986.0652216796875,430.64200085449215,1994.6022216796875,427.7050008544922C2003.1332216796875,424.7740008544922,2010.7342216796874,419.9050008544922,2017.4022216796875,413.1050008544922C2024.0652216796875,406.30500085449216,2029.4022216796875,397.4420008544922,2033.4022216796875,386.5050008544922C2037.4022216796875,375.57400085449217,2039.4022216796875,362.2420008544922,2039.4022216796875,346.5050008544922C2039.4022216796875,332.1050008544922,2038.0032216796876,319.1050008544922,2035.2032216796874,307.5050008544922C2032.4022216796875,295.9050008544922,2027.8032216796876,285.9740008544922,2021.4022216796875,277.7050008544922C2015.0032216796876,269.4430008544922,2006.5342216796876,263.1050008544922,1996.0032216796876,258.7050008544922C1985.4652216796876,254.3050008544922,1972.4652216796876,252.10500085449218,1957.0032216796876,252.10500085449218L1912.2030216796875,252.10500085449218L1912.2030216796875,432.1050008544922L1968.2032216796874,432.1050008544922Z" fill="#FFFFFF" fill-opacity="1"/></g><g><path d="M2200.60204609375,435.30396728515626C2209.13304609375,443.5729672851562,2221.40214609375,447.70396728515624,2237.40224609375,447.70396728515624C2248.86424609375,447.70396728515624,2258.73324609375,444.8419672851562,2267.00224609375,439.1039672851563C2275.26524609375,433.3729672851563,2280.33324609375,427.30396728515626,2282.20224609375,420.9039672851562L2332.20224609375,420.9039672851562C2324.20224609375,445.70396728515624,2311.93324609375,463.44196728515624,2295.40224609375,474.1039672851563C2278.86424609375,484.7719672851563,2258.86424609375,490.1039672851563,2235.40224609375,490.1039672851563C2219.13304609375,490.1039672851563,2204.46414609375,487.50396728515625,2191.40214609375,482.30396728515626C2178.33304609375,477.1039672851563,2167.26414609375,469.70396728515624,2158.20214609375,460.1039672851563C2149.13404609375,450.50396728515625,2142.13404609375,439.04196728515626,2137.20214609375,425.70396728515624C2132.26415609375,412.3729672851563,2129.80224609375,397.70396728515624,2129.80224609375,381.70396728515624C2129.80224609375,366.24196728515625,2132.33325609375,351.8419672851562,2137.40331609375,338.50396728515625C2142.46534609375,325.17196728515626,2149.66624609375,313.64096728515625,2159.00344609375,303.9039672851562C2168.33444609375,294.17296728515623,2179.46634609375,286.50396728515625,2192.40334609375,280.90395728515625C2205.33424609375,275.30395728515623,2219.66624609375,272.50396728515625,2235.40324609375,272.50396728515625C2253.00324609375,272.50396728515625,2268.33424609375,275.90395728515625,2281.40324609375,282.70396728515624C2294.46524609375,289.50396728515625,2305.20324609375,298.6419672851562,2313.60324609375,310.1039672851563C2322.00224609375,321.57296728515627,2328.06524609375,334.64096728515625,2331.80224609375,349.30396728515626C2335.5332460937498,363.97296728515624,2336.86424609375,379.30396728515626,2335.80224609375,395.30396728515626L2186.60324609375,395.30396728515626C2187.40234609375,413.70396728515624,2192.06424609375,427.04196728515626,2200.60204609375,435.30396728515626ZM2264.80124609375,326.5049672851562C2258.00124609375,319.04296728515624,2247.66424609375,315.30496728515624,2233.80124609375,315.30496728515624C2224.73294609375,315.30496728515624,2217.20094609375,316.84296728515625,2211.20094609375,319.90496728515626C2205.20094609375,322.9739672851563,2200.40084609375,326.77396728515623,2196.80104609375,331.30496728515624C2193.20094609375,335.84296728515625,2190.66404609375,340.6419672851563,2189.20094609375,345.7049672851563C2187.73194609375,350.77396728515623,2186.86304609375,355.30496728515624,2186.60084609375,359.30496728515624L2279.00024609375,359.30496728515624C2276.33324609375,344.90496728515626,2271.60224609375,333.97296728515624,2264.80124609375,326.5049672851562Z" fill="#FFFFFF" fill-opacity="1"/></g><g><path d="M2417.198017578125,433.5050048828125C2419.729017578125,437.9050048828125,2422.998017578125,441.5050048828125,2426.998017578125,444.3050048828125C2430.998017578125,447.1050048828125,2435.598117578125,449.1740048828125,2440.798117578125,450.5050048828125C2445.998017578125,451.8420048828125,2451.398217578125,452.5050048828125,2456.998017578125,452.5050048828125C2460.998517578125,452.5050048828125,2465.197517578125,452.0430048828125,2469.598517578125,451.1050048828125C2473.998517578125,450.1730048828125,2477.998517578125,448.7050048828125,2481.598517578125,446.7050048828125C2485.199517578125,444.7050048828125,2488.199517578125,442.0430048828125,2490.598517578125,438.7050048828125C2492.998517578125,435.3740048828125,2494.199517578125,431.1740048828125,2494.199517578125,426.1050048828125C2494.199517578125,417.57400488281246,2488.530517578125,411.1730048828125,2477.199517578125,406.9050048828125C2465.861517578125,402.6420048828125,2450.061317578125,398.3740048828125,2429.799317578125,394.1050048828125C2421.530317578125,392.24200488281247,2413.461417578125,390.0430048828125,2405.599317578125,387.5050048828125C2397.731417578125,384.9740048828125,2390.731417578125,381.6420048828125,2384.599317578125,377.5050048828125C2378.461417578125,373.3740048828125,2373.531217578125,368.1730048828125,2369.799317578125,361.9050048828125C2366.062257578125,355.6420048828125,2364.199217578125,347.9740048828125,2364.199217578125,338.9050048828125C2364.199217578125,325.5740048828125,2366.799317578125,314.6420048828125,2371.999317578125,306.1050048828125C2377.199217578125,297.5740048828125,2384.061317578125,290.8420048828125,2392.599317578125,285.9050048828125C2401.130417578125,280.9739948828125,2410.731417578125,277.5050048828125,2421.399417578125,275.5050048828125C2432.062517578125,273.5050048828125,2443.000517578125,272.5050048828125,2454.200417578125,272.5050048828125C2465.399517578125,272.5050048828125,2476.262517578125,273.5740048828125,2486.800517578125,275.7050148828125C2497.331517578125,277.8430148828125,2506.732517578125,281.4430248828125,2515.000517578125,286.5050048828125C2523.263517578125,291.5740048828125,2530.131517578125,298.3050048828125,2535.600517578125,306.7050048828125C2541.063517578125,315.1050048828125,2544.331517578125,325.7050048828125,2545.400517578125,338.5050048828125L2491.400517578125,338.5050048828125C2490.600517578125,327.5740048828125,2486.462517578125,320.1730048828125,2479.001517578125,316.3050048828125C2471.532517578125,312.4430048828125,2462.732517578125,310.5050048828125,2452.601817578125,310.5050048828125C2449.401817578125,310.5050048828125,2445.932817578125,310.7050048828125,2442.202917578125,311.1050048828125C2438.464817578125,311.5050048828125,2435.064917578125,312.3740048828125,2432.002917578125,313.7050048828125C2428.933817578125,315.0430048828125,2426.334017578125,316.9740048828125,2424.202917578125,319.5050048828125C2422.064917578125,322.0430048828125,2421.002917578125,325.4430048828125,2421.002917578125,329.7050048828125C2421.002917578125,334.7740048828125,2422.865017578125,338.9050048828125,2426.603017578125,342.1050048828125C2430.334017578125,345.3050048828125,2435.204117578125,347.9050048828125,2441.204117578125,349.9050048828125C2447.204117578125,351.9050048828125,2454.066117578125,353.7050048828125,2461.804517578125,355.3050048828125C2469.535517578125,356.9050048828125,2477.404517578125,358.6420048828125,2485.404517578125,360.5050048828125C2493.667517578125,362.3740048828125,2501.736517578125,364.6420048828125,2509.604517578125,367.3050048828125C2517.466517578125,369.9740048828125,2524.466517578125,373.5050048828125,2530.604517578125,377.9050048828125C2536.736517578125,382.3050048828125,2541.666517578125,387.7740048828125,2545.404517578125,394.3050048828125C2549.135517578125,400.84300488281247,2551.005517578125,408.9050048828125,2551.005517578125,418.5050048828125C2551.005517578125,432.1050048828125,2548.268517578125,443.5050048828125,2542.805517578125,452.7050048828125C2537.336517578125,461.9050048828125,2530.205517578125,469.3050048828125,2521.405517578125,474.9050048828125C2512.605517578125,480.5050048828125,2502.537517578125,484.4430048828125,2491.206517578125,486.7050048828125C2479.868517578125,488.96800488281247,2468.337517578125,490.1050048828125,2456.605517578125,490.1050048828125C2444.605517578125,490.1050048828125,2432.868417578125,488.9050048828125,2421.405517578125,486.5050048828125C2409.936517578125,484.1050048828125,2399.737517578125,480.1050048828125,2390.805417578125,474.5050048828125C2381.867417578125,468.9050048828125,2374.536417578125,461.5050048828125,2368.805417578125,452.3050048828125C2363.068357578125,443.1050048828125,2359.936523578125,431.57400488281246,2359.405517578125,417.7050048828125L2413.405517578125,417.7050048828125C2413.398417578125,423.8420048828125,2414.661617578125,429.1050048828125,2417.199417578125,433.5050048828125L2417.198017578125,433.5050048828125Z" fill="#FFFFFF" fill-opacity="1"/></g><g><path d="M2585.7919921875,246.10499267578126L2585.7919921875,199.30499267578125L2642.5919921875,199.30499267578125L2642.5919921875,246.10499267578126L2585.7919921875,246.10499267578126ZM2642.5919921875,278.10499267578126L2642.5919921875,484.9049926757813L2585.7919921875,484.9049926757813L2585.7919921875,278.10499267578126L2642.5919921875,278.10499267578126Z" fill="#FFFFFF" fill-opacity="1"/></g><g><path d="M2882.79074609375,500.1050048828125C2880.52174609375,510.7670048828125,2875.65274609375,520.7050048828125,2868.19074609375,529.9050048828125C2860.72174609375,539.1050048828125,2849.92074609375,546.9050048828125,2835.79074609375,553.3040048828125C2821.65274609375,559.7040048828126,2802.72274609375,562.9050048828125,2778.99094609375,562.9050048828125C2768.85304609375,562.9050048828125,2758.52194609375,561.6360048828125,2747.99094609375,559.1050048828125C2737.45284609375,556.5670048828125,2727.85304609375,552.6360048828125,2719.19094609375,547.3040048828125C2710.52194609375,541.9670048828125,2703.32204609375,535.1050048828125,2697.58984609375,526.7040048828126C2691.85274609375,518.3040048828125,2688.58984609375,508.2350048828125,2687.78979609375,496.5040048828125L2744.18974609375,496.5040048828125C2746.85184609375,507.16700488281253,2752.05174609375,514.5660048828125,2759.78974609375,518.7040048828126C2767.52074609375,522.8350048828125,2776.45194609375,524.9050048828125,2786.58974609375,524.9050048828125C2802.58974609375,524.9050048828125,2814.25274609375,520.1050048828125,2821.58974609375,510.5050048828125C2828.92074609375,500.9050048828125,2832.45174609375,488.7670048828125,2832.19074609375,474.1050048828125L2832.19074609375,446.9050048828125L2831.38974609375,446.9050048828125C2825.25274609375,457.84300488281247,2816.52174609375,465.9050048828125,2805.19074609375,471.1050048828125C2793.85274609375,476.3050048828125,2781.92074609375,478.9050048828125,2769.38984609375,478.9050048828125C2753.92094609375,478.9050048828125,2740.58984609375,476.1740048828125,2729.38984609375,470.7050048828125C2718.19094609375,465.2430048828125,2708.99094609375,457.7740048828125,2701.78974609375,448.3050048828125C2694.58984609375,438.84300488281247,2689.32079609375,427.7740048828125,2685.98974609375,415.1050048828125C2682.65185609375,402.4420048828125,2680.98974609375,389.0430048828125,2680.98974609375,374.9050048828125C2680.98974609375,361.5740048828125,2682.92065609375,348.7050048828125,2686.78979609375,336.3050048828125C2690.65185609375,323.9050048828125,2696.32084609375,312.9740048828125,2703.78974609375,303.5050048828125C2711.25264609375,294.0430048828125,2720.52074609375,286.5050048828125,2731.58984609375,280.9049948828125C2742.65184609375,275.3049948828125,2755.38984609375,272.5050048828125,2769.78974609375,272.5050048828125C2783.38974609375,272.5050048828125,2795.32074609375,275.0429948828125,2805.58974609375,280.1050148828125C2815.85274609375,285.1730048828125,2824.45174609375,293.7050048828125,2831.38974609375,305.7050048828125L2832.19074609375,305.7050048828125L2832.19074609375,278.1050148828125L2886.19074609375,278.1050148828125L2886.19074609375,471.7050048828125C2886.19074609375,479.97300488281246,2885.05274609375,489.43600488281254,2882.79074609375,500.1050048828125ZM2804.99074609375,431.3040048828125C2811.12174609375,428.1040048828125,2816.19074609375,423.8420048828125,2820.19074609375,418.5040048828125C2824.19074609375,413.17200488281253,2827.19074609375,407.1040048828125,2829.19074609375,400.3040048828125C2831.19074609375,393.5040048828125,2832.19074609375,386.3730048828125,2832.19074609375,378.9040048828125C2832.19074609375,370.3730048828125,2831.38974609375,362.3040048828125,2829.79074609375,354.7040048828125C2828.19074609375,347.1040048828125,2825.52174609375,340.3730048828125,2821.79074609375,334.5040048828125C2818.05374609375,328.6410048828125,2813.12174609375,323.9730048828125,2806.99074609375,320.5040048828125C2800.85274609375,317.0420048828125,2793.12174609375,315.3040048828125,2783.79074609375,315.3040048828125C2775.79104609375,315.3040048828125,2768.92214609375,316.9040048828125,2763.19094609375,320.1040048828125C2757.45284609375,323.3040048828125,2752.65284609375,327.6410048828125,2748.79104609375,333.1040048828125C2744.92214609375,338.5730048828125,2742.12204609375,344.8410048828125,2740.39114609375,351.9040048828125C2738.65404609375,358.9730048828125,2737.79104609375,366.3730048828125,2737.79104609375,374.1040048828125C2737.79104609375,381.5730048828125,2738.52194609375,388.9730048828125,2739.99094609375,396.3040048828125C2741.45284609375,403.64100488281247,2743.99094609375,410.24200488281247,2747.59104609375,416.1040048828125C2751.19214609375,421.97300488281246,2755.92214609375,426.7720048828125,2761.79104609375,430.5040048828125C2767.65304609375,434.2410048828125,2774.99094609375,436.1040048828125,2783.79074609375,436.1040048828125C2791.79074609375,436.1050048828125,2798.85274609375,434.5050048828125,2804.99074609375,431.3040048828125Z" fill="#FFFFFF" fill-opacity="1"/></g><g><path d="M2985.788065234375,278.10501436523435L2985.788065234375,306.90497436523435L2986.988065234375,306.90497436523435C2994.187965234375,294.90497436523435,3003.519065234375,286.17397436523436,3014.988065234375,280.7049843652344C3026.450965234375,275.24298436523435,3038.187865234375,272.5049743652344,3050.187865234375,272.5049743652344C3065.387865234375,272.5049743652344,3077.849865234375,274.5739743652344,3087.587865234375,278.7049843652344C3097.317865234375,282.8429743652344,3104.986865234375,288.5739743652344,3110.587865234375,295.90497436523435C3116.187865234375,303.2419743652344,3120.118865234375,312.17397436523436,3122.387865234375,322.70497436523436C3124.650865234375,333.2429743652344,3125.786865234375,344.90497436523435,3125.786865234375,357.70497436523436L3125.786865234375,484.90497436523435L3068.986865234375,484.90497436523435L3068.986865234375,368.1049743652344C3068.986865234375,351.0429743652344,3066.317865234375,338.3049743652344,3060.986865234375,329.90497436523435C3055.649865234375,321.5049743652344,3046.186865234375,317.3049743652344,3032.587865234375,317.3049743652344C3017.118865234375,317.3049743652344,3005.918965234375,321.90497436523435,2998.986865234375,331.1049743652344C2992.048865234375,340.3049743652344,2988.587865234375,355.4419743652344,2988.587865234375,376.5049743652344L2988.587865234375,484.90497436523435L2931.786865234375,484.90497436523435L2931.786865234375,278.10492436523435L2985.788065234375,278.10501436523435Z" fill="#FFFFFF" fill-opacity="1"/></g></g></svg>