<svg xmlns="http://www.w3.org/2000/svg" xmlns:xlink="http://www.w3.org/1999/xlink" fill="none" version="1.1" width="659.072998046875" height="659.072998046875" viewBox="0 0 659.072998046875 659.072998046875"><defs><mask id="master_svg0_4576_03242" style="mask-type:alpha" maskUnits="objectBoundingBox"><g><path d="M0,264.786L0,34.67C0,15.575,15.574,0.0000152588,34.669,0.0000152588L264.786,0.0000152588C279.107,0.0000152588,291.336,8.17101,296.816,21.402C302.296,34.633,299.428,49.058,289.301,59.185L59.185,289.302C49.058,299.429,34.633,302.298,21.402,296.817C8.17,291.336,-0.0000038147,279.108,0,264.786Z" fill="#FFFFFF" fill-opacity="1"/></g></mask><linearGradient x1="-0.2339930534362793" y1="1.7712773084640503" x2="0.8498728275299074" y2="-0.10598021000623692" id="master_svg1_4576_03339"><stop offset="0%" stop-color="#0049E6" stop-opacity="1"/><stop offset="52.99999713897705%" stop-color="#9C15F7" stop-opacity="1"/><stop offset="100%" stop-color="#FF4CF8" stop-opacity="1"/></linearGradient><mask id="master_svg2_4576_03249" style="mask-type:alpha" maskUnits="objectBoundingBox"><g><path d="M0,92.8479995727539L182.047,92.8479995727539L182.047,299.5549995727539L0,299.5549995727539L0,92.8479995727539Z" fill="#FFFFFF" fill-opacity="1"/></g></mask><mask id="master_svg3_4576_03256" style="mask-type:alpha" maskUnits="objectBoundingBox"><g><path d="M3.9489998817443848,0L299.5539998817444,0L299.5539998817444,109.393L3.949005126954385,109.393L3.9489998817443848,0Z" fill="#FFFFFF" fill-opacity="1"/></g></mask><mask id="master_svg4_4576_03261" style="mask-type:alpha" maskUnits="objectBoundingBox"><g><path d="M317.225,659.0732019042969L34.669,659.0732019042969C15.574,659.0732019042969,0,643.4982019042968,0,624.4032019042968L0,490.1182019042969C0,480.5702019042969,3.403,472.3542019042969,10.154,465.60220190429686L140.135,335.6220019042969C148.011,327.74499190429685,158.131,324.3100019042969,169.175,325.7640079042969C180.219,327.21802190429685,189.105,333.1560019042969,194.674,342.8020019042969L347.248,607.0672019042969C353.613,618.0912019042969,353.613,630.7132019042969,347.249,641.7372019042969C340.884,652.762201904297,329.955,659.0732019042969,317.225,659.0732019042969Z" fill="#FFFFFF" fill-opacity="1"/></g></mask><linearGradient x1="0.8561024069786072" y1="-0.24535208940505981" x2="0.17138157153943265" y2="1.0390944325365932" id="master_svg5_4576_03344"><stop offset="0%" stop-color="#0077BF" stop-opacity="1"/><stop offset="43.99999976158142%" stop-color="#1A84F7" stop-opacity="1"/><stop offset="100%" stop-color="#5EF9F6" stop-opacity="1"/></linearGradient><mask id="master_svg6_4576_03268" style="mask-type:alpha" maskUnits="objectBoundingBox"><g><path d="M0,474.9049987792969L327.999,474.9049987792969L327.999,659.0729987792969L0,659.0729987792969L0,474.9049987792969Z" fill="#FFFFFF" fill-opacity="1"/></g></mask><mask id="master_svg7_4576_03275" style="mask-type:alpha" maskUnits="objectBoundingBox"><g><path d="M43.643001556404684,325.43798828125L274.7569901123047,325.43798828125L274.7569901123047,481.50698828124996L43.64299011230469,481.50698828124996L43.643001556404684,325.43798828125Z" fill="#FFFFFF" fill-opacity="1"/></g></mask><mask id="master_svg8_4576_03282" style="mask-type:alpha" maskUnits="objectBoundingBox"><g><path d="M75.14600372314,325.43798828125L347.24999609375,325.43798828125L347.24999609375,607.06698828125L75.14599609375,607.06698828125L75.14600372314,325.43798828125Z" fill="#FFFFFF" fill-opacity="1"/></g></mask><mask id="master_svg9_4576_03285" style="mask-type:alpha" maskUnits="objectBoundingBox"><g><path d="M624.4014963378906,659.073L501.2064963378906,659.073C488.4744963378906,659.073,477.54649633789063,652.762,471.1814963378906,641.737L251.26597633789063,260.832C243.3089763378906,247.051,245.52397633789062,230.234,256.7759963378906,218.982L465.60149633789064,10.155C472.35349633789065,3.403,480.56949633789066,0,490.11749633789066,0L624.4014963378906,0C643.4974963378907,0,659.0714963378906,15.575,659.0714963378906,34.67L659.0714963378906,624.403C659.0714963378906,643.498,643.4974963378907,659.073,624.4014963378906,659.073Z" fill="#FFFFFF" fill-opacity="1"/></g></mask><linearGradient x1="0.14845561981201172" y1="0.8841103911399841" x2="0.5019352329077503" y2="-0.08642970246329021" id="master_svga_4576_03350"><stop offset="0%" stop-color="#FF057E" stop-opacity="1"/><stop offset="100%" stop-color="#FFCB00" stop-opacity="1"/></linearGradient><mask id="master_svgb_4576_03293" style="mask-type:alpha" maskUnits="objectBoundingBox"><g><path d="M342.885009765625,0.0010000000474974513L659.073009765625,0.0010000000474974513L659.073009765625,132.8730000000475L342.885009765625,132.8730000000475L342.885009765625,0.0010000000474974513Z" fill="#FFFFFF" fill-opacity="1"/></g></mask><mask id="master_svgc_4576_03300" style="mask-type:alpha" maskUnits="objectBoundingBox"><g><path d="M490.11700439453125,0L659.0720043945313,0L659.0720043945313,376.683L490.11700439453125,376.683L490.11700439453125,0Z" fill="#FFFFFF" fill-opacity="1"/></g></mask><mask id="master_svgd_4576_03305" style="mask-type:alpha" maskUnits="objectBoundingBox"><g><path d="M246.52699279785156,170.10699462890625L614.7699927978515,170.10699462890625L614.7699927978515,659.0729946289063L246.52700805665157,659.0729946289063L246.52699279785156,170.10699462890625Z" fill="#FFFFFF" fill-opacity="1"/></g></mask><mask id="master_svge_4576_03312" style="mask-type:alpha" maskUnits="objectBoundingBox"><g><path d="M251.2660064697375,260.8320007324219L659.0729912109375,260.8320007324219L659.0729912109375,659.0730007324219L251.2659912109375,659.0730007324219L251.2660064697375,260.8320007324219Z" fill="#FFFFFF" fill-opacity="1"/></g></mask></defs><g><g mask="url(#master_svg0_4576_03242)"><g><path d="M0,0L302.297,0L302.297,302.297L0,302.297L0,0Z" fill="url(#master_svg1_4576_03339)" fill-opacity="1"/></g></g><g mask="url(#master_svg2_4576_03249)"><g><path d="M0,264.7860072021484L0,92.84800720214844Q7.132,159.38100720214845,31.547,188.67900720214845C55.962,217.97800720214843,132.34,201.57600720214845,182.047,166.43900720214845L59.185,289.30200720214845C49.058,299.42900720214845,34.633,302.2980072021484,21.402,296.81700720214843C8.17,291.33600720214844,-0.0000038147,279.1080072021484,0,264.7860072021484Z" fill-rule="evenodd" fill="#330066" fill-opacity="1"/></g></g><g mask="url(#master_svg3_4576_03256)"><g><path d="M3.9489998817443848,18.632C9.753999881744384,7.573,21.353999881744386,0,34.668999881744384,0L264.7859998817444,0C279.1069998817444,0,291.3359998817444,8.171,296.8159998817444,21.402C302.29599988174436,34.633,299.42799988174437,49.058,289.30099988174436,59.185L239.0929998817444,109.393C180.4629998817444,10.508,4.064986881744384,18.626,3.9489998817443848,18.632Z" fill-rule="evenodd" fill="#FF98FF" fill-opacity="1"/></g></g><g mask="url(#master_svg4_4576_03261)"><g><path d="M0,324.30999755859375L353.614,324.30999755859375L353.614,659.0729975585937L0,659.0729975585937L0,324.30999755859375Z" fill="url(#master_svg5_4576_03344)" fill-opacity="1"/></g></g><g mask="url(#master_svg6_4576_03268)"><g><path d="M317.225,659.0729987792969L34.669,659.0729987792969C15.574,659.0729987792969,0,643.4979987792968,0,624.4029987792969L0,490.1179987792969C0,484.59200877929686,1.14,479.5129987792969,3.408,474.9049987792969Q31.596,655.8289987792969,327.999,657.4509987792969C324.613,658.5189987792969,320.998,659.0729987792969,317.225,659.0729987792969Z" fill-rule="evenodd" fill="#98FFFF" fill-opacity="1"/></g></g><g mask="url(#master_svg7_4576_03275)"><g><path d="M43.643001556396484,432.1152019042969L140.13600155639648,335.6220019042969C148.01200155639648,327.74499190429685,158.1320015563965,324.3100019042969,169.1760015563965,325.7640079042969C180.22000155639648,327.21802190429685,189.10600155639648,333.1560019042969,194.6750015563965,342.8020019042969L274.7570015563965,481.50720190429683Q180.4240015563965,370.2590019042969,43.643001556396484,432.1152019042969Z" fill-rule="evenodd" fill="#0131B8" fill-opacity="1"/></g></g><g mask="url(#master_svg8_4576_03282)"><g><path d="M75.14600372314453,400.6120019042969L140.13600372314454,335.6220019042969C148.01200372314452,327.74499190429685,158.13200372314452,324.3100019042969,169.17600372314453,325.7640079042969C180.22000372314454,327.21802190429685,189.1060037231445,333.1560019042969,194.67500372314453,342.8020019042969L347.24900372314454,607.0672019042969C304.9590037231445,545.6902019042968,188.72200372314452,405.3680019042969,153.31900372314453,392.54900190429686Q117.91600372314454,379.73200190429685,75.14600372314453,400.6120019042969Z" fill-rule="evenodd" fill="#0131B8" fill-opacity="1"/></g></g><g mask="url(#master_svg9_4576_03285)"><g><path d="M243.30900573731563,0L659.0729904785156,0L659.0729904785156,659.073L243.30899047851562,659.073L243.30900573731563,0Z" fill="url(#master_svga_4576_03350)" fill-opacity="1"/></g></g><g><g mask="url(#master_svgb_4576_03293)"><g><path d="M342.88500976796877,132.872L465.60197216796877,10.155C472.35297216796874,3.403,480.56897216796875,0,490.11697216796875,0L624.4019721679688,0C643.4979721679688,0,659.0719721679687,15.575,659.0719721679687,34.67L659.0719721679687,81.285Q504.4549721679688,15.758,342.88397216796875,132.872L342.88500976796877,132.872Z" fill-rule="evenodd" fill="#FDF063" fill-opacity="1"/></g></g><g mask="url(#master_svgc_4576_03300)"><g><path d="M490.11700439453125,0L624.4020043945312,0C643.4980043945312,0,659.0720043945313,15.575,659.0720043945313,34.67L659.0720043945313,376.683Q622.8020043945312,110.554,490.11700439453125,0Z" fill-rule="evenodd" fill="#FDF063" fill-opacity="1"/></g></g><g mask="url(#master_svgd_4576_03305)"><g><path d="M614.7705268554687,659.0729946289063L501.2065268554687,659.0729946289063C488.47452685546875,659.0729946289063,477.54652685546876,652.7619946289062,471.18152685546875,641.7369946289062L251.26600685546876,260.8319946289063C243.30900685546874,247.05099462890627,245.52400685546874,230.23399462890626,256.77602685546873,218.98199462890625L305.65002685546875,170.10800170890624L305.65102685546873,170.10699462890625C305.65002685546875,170.10699462890625,412.12152685546874,516.6339946289063,614.7705268554687,659.0729946289063Z" fill-rule="evenodd" fill="#CB0680" fill-opacity="1"/></g></g><g mask="url(#master_svge_4576_03312)"><g><path d="M624.4019759521484,659.0730007324219L501.20697595214847,659.0730007324219C488.47497595214844,659.0730007324219,477.54697595214844,652.7620007324219,471.18197595214843,641.7370007324218L251.26597595214844,260.8320007324219Q460.43897595214844,556.1320007324218,659.0729759521485,536.5990007324219L659.0729759521485,624.4030007324219C659.0719759521485,643.4980007324218,643.4979759521484,659.0730007324219,624.4019759521484,659.0730007324219Z" fill-rule="evenodd" fill="#CB0680" fill-opacity="1"/></g></g></g></g></svg>